HIERARCHY
ROOT Hips
{
	OFFSET -3.958830 18.904000 13.208200
	CHANNELS 6 Xposition Yposition Zposition Zrotation Yrotation Xrotation 
	JOINT LHipJoint
	{
		OFFSET 0.000000 0.000000 0.000000
		CHANNELS 3 Zrotation Yrotation Xrotation
		JOINT LeftUpLeg
		{
			OFFSET 1.800000 -1.400000 0.085000
			CHANNELS 3 Zrotation Yrotation Xrotation
			JOINT LeftLeg
			{
				OFFSET 2.215000 -6.000000 0.000000
				CHANNELS 3 Zrotation Yrotation Xrotation
				JOINT LeftFoot
				{
					OFFSET 2.500000 -6.900000 0.000000
					CHANNELS 3 Zrotation Yrotation Xrotation
					JOINT LeftToeBase
					{
						OFFSET 0.200000 -0.500000 1.950000
						CHANNELS 3 Zrotation Yrotation Xrotation
						End Site
						{
							OFFSET 0.000000 0.000000 0.000000
						}
					}
				}
			}
		}
	}
	JOINT RHipJoint
	{
		OFFSET 0.000000 0.000000 0.000000
		CHANNELS 3 Zrotation Yrotation Xrotation
		JOINT RightUpLeg
		{
			OFFSET -1.800000 -1.400000 0.085000
			CHANNELS 3 Zrotation Yrotation Xrotation
			JOINT RightLeg
			{
				OFFSET -2.215000 -6.000000 0.000000
				CHANNELS 3 Zrotation Yrotation Xrotation
				JOINT RightFoot
				{
					OFFSET -2.500000 -6.900000 0.000000
					CHANNELS 3 Zrotation Yrotation Xrotation
					JOINT RightToeBase
					{
						OFFSET -0.200000 -0.500000 1.950000
						CHANNELS 3 Zrotation Yrotation Xrotation
						End Site
						{
							OFFSET 0.000000 0.000000 0.000000
						}
					}
				}
			}
		}
	}
	JOINT LowerBack
	{
		OFFSET 0.000000 0.000000 0.000000
		CHANNELS 3 Zrotation Yrotation Xrotation
		JOINT Spine
		{
			OFFSET -0.087000 1.940000 -0.288900
			CHANNELS 3 Zrotation Yrotation Xrotation
			JOINT Spine1
			{
				OFFSET 0.000000 1.950000 0.060000
				CHANNELS 3 Zrotation Yrotation Xrotation
				JOINT Neck
				{
					OFFSET 0.000000 0.000000 0.000000
					CHANNELS 3 Zrotation Yrotation Xrotation
					JOINT Neck1
					{
						OFFSET 0.000000 1.600000 0.340000
						CHANNELS 3 Zrotation Yrotation Xrotation
						JOINT Head
						{
							OFFSET 0.000000 1.667000 -0.240000
							CHANNELS 3 Zrotation Yrotation Xrotation
							End Site
							{
								OFFSET 0.000000 0.000000 0.000000
							}
						}
					}
				}
				JOINT LeftShoulder
				{
					OFFSET 0.000000 0.000000 0.000000
					CHANNELS 3 Zrotation Yrotation Xrotation
					JOINT LeftArm
					{
						OFFSET 2.700000 1.550000 -0.730000
						CHANNELS 3 Zrotation Yrotation Xrotation
						JOINT LeftForeArm
						{
							OFFSET 5.450000 0.000000 0.000000
							CHANNELS 3 Zrotation Yrotation Xrotation
							JOINT LeftHand
							{
								OFFSET 3.450000 0.000000 0.000000
								CHANNELS 3 Zrotation Yrotation Xrotation
								JOINT LeftHandIndex1
								{
									OFFSET 0.750000 0.000000 0.000000
									CHANNELS 3 Zrotation Yrotation Xrotation
									End Site
									{
										OFFSET 0.000000 0.000000 0.000000
									}
								}
							}
						}
					}
				}
				JOINT RightShoulder
				{
					OFFSET 0.000000 0.000000 0.000000
					CHANNELS 3 Zrotation Yrotation Xrotation
					JOINT RightArm
					{
						OFFSET -2.700000 1.550000 -0.730000
						CHANNELS 3 Zrotation Yrotation Xrotation
						JOINT RightForeArm
						{
							OFFSET -5.450000 0.000000 0.000000
							CHANNELS 3 Zrotation Yrotation Xrotation
							JOINT RightHand
							{
								OFFSET -3.450000 0.000000 0.000000
								CHANNELS 3 Zrotation Yrotation Xrotation
								JOINT RightHandIndex1
								{
									OFFSET -0.750000 0.000000 0.000000
									CHANNELS 3 Zrotation Yrotation Xrotation
									End Site
									{
										OFFSET 0.000000 0.000000 0.000000
									}
								}
							}
						}
					}
				}
			}
		}
	}
}
MOTION
Frames: 10
Frame Time: 0.016667
1.260150 17.007540 -0.223170 -3.433565 8.281316 8.885500 -15.226976 12.826473 2.415904 0.321815 -2.760985 -15.246394 -3.596953 6.311863 24.202620 -0.439397 5.296717 3.136380 0.087720 -0.417440 0.071930 18.406061 -9.662958 4.034912 -4.093126 5.860388 -40.597674 10.010875 -3.039361 5.677997 0.476053 -2.251430 3.839327 -0.007450 0.934920 0.436180 -3.822888 -1.738653 -7.330294 9.664753 -3.499711 4.072000 -2.180466 -3.766338 11.264142 2.732350 2.970278 -8.687531 4.016865 -0.315315 27.338186 -9.782730 5.697230 10.850180 -0.729111 -4.335223 3.288227 -3.688829 -2.928942 0.007973 83.904597 -61.680298 -47.797966 -4.115112 2.056168 -0.027410 0.886960 -0.638550 0.299670 -4.200917 0.496133 3.519240 13.236666 -10.174827 -9.333952 -63.079623 85.599164 -48.901612 0.692653 -0.119366 -0.370700 0.119310 0.119540 -0.171300 
1.274320 16.984530 -0.207260 -3.496516 8.152468 8.612151 -15.228340 12.868448 2.445899 0.345616 -2.820860 -15.178868 -3.558965 6.396730 24.724999 -0.411246 5.386568 3.118686 0.059670 -0.459860 0.057480 18.390753 -9.694076 4.022836 -4.074573 5.840776 -40.492668 10.280846 -3.324652 7.016747 0.483958 -2.329978 3.816613 -0.030560 0.951720 0.432080 -3.798744 -1.780868 -7.371131 9.665540 -3.451420 4.799165 -2.099213 -3.667879 10.422393 2.918316 3.150989 -8.733446 4.398875 -0.572503 26.475143 -9.748940 5.680940 11.603270 -1.912210 -4.895824 3.216022 -3.102949 -3.361124 -0.000373 84.362654 -61.161949 -47.700275 -4.144590 2.074061 -0.035060 0.896440 -0.658290 0.299010 -3.339312 0.950634 3.661671 13.697026 -10.973370 -9.690699 -70.156331 84.364956 -52.428886 0.457972 0.638428 -0.382890 0.112920 0.125670 -0.171350 
1.313320 16.937480 -0.182390 -3.949731 7.861398 8.230206 -15.235765 12.938862 2.529553 0.708957 -3.165806 -15.645159 -3.723237 6.789828 26.706182 -0.378907 5.748912 2.995743 -0.011610 -0.559340 0.047130 18.361841 -9.694412 4.021349 -3.547243 6.047417 -40.323878 10.984695 -3.938661 9.599675 0.494209 -2.500993 3.756764 -0.074920 0.981040 0.435260 -3.742899 -1.946422 -7.484318 10.170621 -3.809867 6.391032 -1.908719 -3.813935 9.270062 3.374145 3.475533 -9.121709 5.124467 -0.694046 24.547080 -10.789270 6.728500 12.019680 -4.474454 -5.210664 3.181337 -3.535231 -3.397887 0.194422 89.575000 -59.623748 -51.476964 -4.268272 2.023336 -0.030970 0.932060 -0.690900 0.262930 -1.681828 1.026652 4.558276 15.394026 -10.796475 -8.773091 -82.505850 78.713904 -57.020093 0.162179 1.532235 -0.423240 0.111630 0.170090 -0.199460 
1.352170 16.908160 -0.170390 -3.889812 6.628227 7.185372 -15.275465 13.057526 2.690530 0.462546 -3.529826 -15.798280 -3.882175 7.299243 29.384326 -0.260917 6.146754 2.840397 -0.037080 -0.596570 0.035500 18.280529 -9.702935 4.020830 -3.165275 6.174669 -39.797430 11.887187 -4.790451 12.996085 0.437843 -2.751179 3.671800 -0.125270 0.940740 0.421070 -3.549022 -2.201808 -7.696504 9.889253 -3.766150 9.851299 -1.839162 -3.306834 7.981671 3.651195 3.812713 -10.344740 5.832150 -0.979203 23.474332 -10.612230 7.133080 11.878850 -6.753951 -5.363114 3.085440 -5.453152 -3.952563 0.186741 96.224069 -57.322226 -57.064710 -4.307254 2.095743 0.021160 0.882840 -0.658410 0.255730 -0.265612 1.305375 7.070865 20.628801 -10.681269 -7.433306 -93.520661 68.731215 -62.451988 0.681678 0.787879 -0.421430 0.094750 0.172250 -0.208250 
1.399820 16.870850 -0.154170 -3.781325 5.386758 6.981725 -15.302238 12.974185 2.858413 0.016654 -4.295164 -17.223317 -4.317909 8.042776 32.921250 -0.129198 6.752986 2.638959 -0.090620 -0.648610 -0.013000 18.267363 -9.595739 4.049138 -3.080944 6.573745 -40.323177 13.223479 -5.988667 17.220991 0.376988 -3.243830 3.505982 -0.154350 0.983370 0.400260 -3.467441 -2.316042 -7.811789 10.032554 -3.821139 11.870973 -1.561512 -2.956897 6.815149 3.648351 3.331011 -10.705203 5.251877 -0.722294 22.125268 -10.018390 7.119920 11.982200 -7.728253 -4.675147 3.538123 -10.669591 -4.908818 0.545584 103.846014 -54.840690 -64.609594 -4.438849 2.251752 0.020540 0.890720 -0.681690 0.254090 0.600297 1.295779 7.321465 25.658275 -8.751565 -8.118829 -94.935914 62.882105 -61.738814 1.054184 -0.167376 -0.448100 0.127120 0.203400 -0.197610 
1.450210 16.855340 -0.155190 -3.275759 3.601123 5.729465 -15.337363 12.884715 3.184310 -0.544400 -5.509989 -18.648162 -5.601928 9.496471 37.993965 0.143288 7.720631 2.281473 -0.136940 -0.713740 -0.040560 18.227394 -9.489525 3.987596 -3.749559 6.513022 -39.296129 15.364271 -7.426542 20.527833 0.243985 -3.812955 3.308288 -0.238240 0.924160 0.369080 -3.332242 -2.538988 -8.075280 9.581927 -4.058548 15.883831 -1.607510 -2.552423 5.742644 3.692848 2.727891 -11.894809 4.275906 0.053253 22.684884 -9.079510 7.734260 11.674030 -8.152380 -5.475714 4.898848 -17.004862 -3.762023 -0.391854 111.703290 -52.578476 -74.001834 -4.437261 2.466171 0.106650 0.803050 -0.634720 0.232870 0.781397 3.119240 8.055629 32.576800 -6.278170 -9.781593 -97.477648 57.406015 -62.801856 1.359039 -0.746266 -0.445420 0.111660 0.221890 -0.208910 
1.503120 16.835910 -0.172940 -3.415103 0.807854 4.489823 -15.364203 12.641611 3.560528 0.081580 -6.983445 -21.252767 -8.053652 11.905461 43.532823 0.435288 9.042297 1.791334 -0.106150 -0.683640 -0.015080 18.235413 -9.291945 3.932398 -3.355994 7.135059 -38.621389 16.068897 -8.839049 25.151600 0.044888 -4.440878 3.071159 -0.257210 0.846330 0.370330 -3.270862 -2.668131 -8.326993 9.972757 -4.246714 20.312514 -1.632094 -1.879108 4.957338 3.642009 1.781254 -12.401663 2.764686 1.468896 22.749850 -8.192780 8.419770 7.819190 -9.397073 -6.476290 5.910036 -22.168612 -2.254143 -1.960641 119.375881 -50.509281 -84.000277 -4.409842 2.657907 0.224150 0.706530 -0.544120 0.217450 2.102195 5.337161 7.986537 37.012339 -3.168988 -11.469499 -99.746172 52.428633 -62.852251 1.504653 -1.086649 -0.428770 0.122120 0.228130 -0.230030 
1.565480 16.798080 -0.212810 -3.462831 -2.667823 3.575418 -15.419915 12.231197 4.026862 0.716208 -8.729701 -25.090964 -11.003799 14.938347 48.999700 0.722648 10.520936 1.276110 -0.041270 -0.628090 0.081490 18.257368 -8.982118 3.897896 -2.772771 8.069917 -38.807438 15.659411 -10.067833 30.437874 -0.175064 -5.111768 2.806036 -0.230420 0.741170 0.333930 -3.204869 -2.731670 -8.586776 9.821837 -4.253950 24.401772 -1.258707 -1.194072 5.004365 3.591949 0.870242 -12.605910 1.314136 3.010195 22.792235 -8.165900 9.644380 2.465180 -10.240741 -7.405751 6.807739 -27.294399 -0.986865 -3.697956 126.597033 -49.322327 -95.344452 -4.330993 2.779807 0.368810 0.592440 -0.452560 0.193110 3.091230 7.503882 7.535806 40.334901 1.220701 -12.680063 -101.026582 48.887175 -62.421154 1.565763 -1.206325 -0.457960 0.163950 0.205970 -0.289430 
1.630160 16.733770 -0.237820 -3.608851 -7.719692 3.290263 -15.492464 11.689810 4.532480 2.003221 -10.110769 -30.097730 -14.396154 19.015650 54.514086 1.108534 12.252136 0.732506 -0.003280 -0.592300 0.146310 18.286001 -8.611074 3.931383 -1.421719 9.667164 -39.334310 14.198284 -10.668777 35.527252 -0.371362 -5.697465 2.597589 -0.219710 0.675240 0.319500 -3.160487 -2.608108 -8.876014 9.777696 -3.151040 27.700234 -1.111344 0.635976 5.160111 3.715399 0.122627 -12.859832 0.212332 3.499639 22.849537 -8.804260 10.180340 -2.050770 -11.282283 -8.486129 7.370692 -32.578460 -1.199684 -5.005912 132.480387 -48.432656 -105.551535 -4.267926 2.849941 0.475320 0.519520 -0.379250 0.175510 3.914213 10.084793 7.616519 44.100096 3.951270 -14.306979 -103.558411 45.705419 -63.690154 1.609327 -1.283014 -0.475300 0.204220 0.196840 -0.326780 
1.707930 16.633640 -0.231240 -4.032961 -11.993939 3.752072 -15.562483 11.015394 5.102023 4.463793 -11.381725 -36.261145 -17.833040 23.881045 60.283637 1.571055 14.139664 0.198583 0.052430 -0.511100 0.204270 18.338297 -8.183669 4.013558 0.030460 11.312662 -40.861448 12.030581 -10.813946 40.161738 -0.543276 -6.182527 2.436341 -0.180180 0.621560 0.293920 -3.215602 -2.363719 -9.211383 10.409196 -2.551014 29.358069 -1.220677 1.960861 5.305990 3.703503 -0.248323 -12.695159 -0.359831 3.939039 23.702871 -9.107750 10.744630 -5.280840 -13.322471 -9.670779 7.612732 -36.020346 -2.119835 -5.524153 139.258821 -47.597351 -117.085109 -4.204302 2.908160 0.537170 0.465240 -0.314370 0.181160 5.954925 12.100318 7.402796 46.512736 6.051919 -15.328205 -105.546766 44.007410 -65.185385 1.628411 -1.286124 -0.480670 0.249690 0.161290 -0.343010 
